<svg width="298" height="74" viewBox="0 0 298 74" fill="none" xmlns="http://www.w3.org/2000/svg">
<path d="M108.938 58.326C105.11 58.326 101.591 57.4367 98.382 55.658C95.2113 53.8793 92.6787 51.4047 90.784 48.234C88.928 45.0247 88 41.4287 88 37.446C88 33.4633 88.928 29.8867 90.784 26.716C92.6787 23.5453 95.2113 21.0707 98.382 19.292C101.591 17.5133 105.11 16.624 108.938 16.624C112.766 16.624 116.265 17.5133 119.436 19.292C122.645 21.0707 125.159 23.5453 126.976 26.716C128.832 29.8867 129.76 33.4633 129.76 37.446C129.76 41.4287 128.832 45.0247 126.976 48.234C125.12 51.4047 122.607 53.8793 119.436 55.658C116.265 57.4367 112.766 58.326 108.938 58.326ZM108.938 49.278C112.186 49.278 114.777 48.1953 116.71 46.03C118.682 43.8647 119.668 41.0033 119.668 37.446C119.668 33.85 118.682 30.9887 116.71 28.862C114.777 26.6967 112.186 25.614 108.938 25.614C105.651 25.614 103.022 26.6773 101.05 28.804C99.1167 30.9307 98.15 33.8113 98.15 37.446C98.15 41.042 99.1167 43.9227 101.05 46.088C103.022 48.2147 105.651 49.278 108.938 49.278Z" fill="#5D5D5D"/>
<path d="M133.306 41.738C133.306 38.374 133.982 35.4353 135.336 32.922C136.728 30.4087 138.642 28.4753 141.078 27.122C143.552 25.7687 146.375 25.092 149.546 25.092C153.606 25.092 156.989 26.1553 159.696 28.282C162.441 30.4087 164.239 33.4053 165.09 37.272H154.534C153.644 34.7973 151.924 33.56 149.372 33.56C147.554 33.56 146.104 34.2753 145.022 35.706C143.939 37.098 143.398 39.1087 143.398 41.738C143.398 44.3673 143.939 46.3973 145.022 47.828C146.104 49.22 147.554 49.916 149.372 49.916C151.924 49.916 153.644 48.6787 154.534 46.204H165.09C164.239 49.9933 162.441 52.9707 159.696 55.136C156.95 57.3013 153.567 58.384 149.546 58.384C146.375 58.384 143.552 57.7073 141.078 56.354C138.642 55.0007 136.728 53.0673 135.336 50.554C133.982 48.0407 133.306 45.102 133.306 41.738Z" fill="#5D5D5D"/>
<path d="M188.433 49.51V57.92H183.387C179.791 57.92 176.988 57.05 174.977 55.31C172.966 53.5313 171.961 50.6507 171.961 46.668V33.792H168.017V25.556H171.961V17.668H181.879V25.556H188.375V33.792H181.879V46.784C181.879 47.7507 182.111 48.4467 182.575 48.872C183.039 49.2973 183.812 49.51 184.895 49.51H188.433Z" fill="#5D5D5D"/>
<path d="M191.985 41.68C191.985 38.3547 192.604 35.4353 193.841 32.922C195.117 30.4087 196.838 28.4753 199.003 27.122C201.169 25.7687 203.585 25.092 206.253 25.092C208.535 25.092 210.526 25.556 212.227 26.484C213.967 27.412 215.301 28.63 216.229 30.138V25.556H226.147V57.92H216.229V53.338C215.263 54.846 213.909 56.064 212.169 56.992C210.468 57.92 208.477 58.384 206.195 58.384C203.566 58.384 201.169 57.7073 199.003 56.354C196.838 54.962 195.117 53.0093 193.841 50.496C192.604 47.944 191.985 45.0053 191.985 41.68ZM216.229 41.738C216.229 39.2633 215.533 37.3107 214.141 35.88C212.788 34.4493 211.125 33.734 209.153 33.734C207.181 33.734 205.499 34.4493 204.107 35.88C202.754 37.272 202.077 39.2053 202.077 41.68C202.077 44.1547 202.754 46.1267 204.107 47.596C205.499 49.0267 207.181 49.742 209.153 49.742C211.125 49.742 212.788 49.0267 214.141 47.596C215.533 46.1653 216.229 44.2127 216.229 41.738Z" fill="#5D5D5D"/>
<path d="M246.489 58.384C243.666 58.384 241.153 57.9007 238.949 56.934C236.745 55.9673 235.005 54.6527 233.729 52.99C232.453 51.2887 231.737 49.394 231.583 47.306H241.385C241.501 48.4273 242.023 49.336 242.951 50.032C243.879 50.728 245.019 51.076 246.373 51.076C247.61 51.076 248.557 50.844 249.215 50.38C249.911 49.8773 250.259 49.2393 250.259 48.466C250.259 47.538 249.775 46.8613 248.809 46.436C247.842 45.972 246.276 45.4693 244.111 44.928C241.791 44.3867 239.857 43.826 238.311 43.246C236.764 42.6273 235.43 41.68 234.309 40.404C233.187 39.0893 232.627 37.33 232.627 35.126C232.627 33.27 233.129 31.588 234.135 30.08C235.179 28.5333 236.687 27.3153 238.659 26.426C240.669 25.5367 243.047 25.092 245.793 25.092C249.853 25.092 253.043 26.0973 255.363 28.108C257.721 30.1187 259.075 32.7867 259.423 36.112H250.259C250.104 34.9907 249.601 34.1013 248.751 33.444C247.939 32.7867 246.856 32.458 245.503 32.458C244.343 32.458 243.453 32.69 242.835 33.154C242.216 33.5793 241.907 34.1787 241.907 34.952C241.907 35.88 242.39 36.576 243.357 37.04C244.362 37.504 245.909 37.968 247.997 38.432C250.394 39.0507 252.347 39.6693 253.855 40.288C255.363 40.868 256.677 41.8347 257.799 43.188C258.959 44.5027 259.558 46.2813 259.597 48.524C259.597 50.4187 259.055 52.12 257.973 53.628C256.929 55.0973 255.401 56.2573 253.391 57.108C251.419 57.9587 249.118 58.384 246.489 58.384Z" fill="#5D5D5D"/>
<path d="M285.558 25.208C289.27 25.208 292.248 26.4453 294.49 28.92C296.733 31.356 297.854 34.72 297.854 39.012V57.92H287.994V40.346C287.994 38.1807 287.434 36.4987 286.312 35.3C285.191 34.1013 283.683 33.502 281.788 33.502C279.894 33.502 278.386 34.1013 277.264 35.3C276.143 36.4987 275.582 38.1807 275.582 40.346V57.92H265.664V15H275.582V29.906C276.588 28.4753 277.96 27.3347 279.7 26.484C281.44 25.6333 283.393 25.208 285.558 25.208Z" fill="#5D5D5D"/>
<path fill-rule="evenodd" clip-rule="evenodd" d="M42.9046 70.5271C42.6155 72.3496 44.0248 73.9986 45.8701 73.997L51.5317 73.9923C52.3383 73.9916 53.1106 73.6661 53.6744 73.0893L73.1266 53.1902C73.6856 52.6184 73.9931 51.847 73.981 51.0474L73.9731 50.531C73.9481 48.8922 72.6125 47.5767 70.9734 47.5767H67.4568C65.6126 47.5767 64.205 45.9283 64.4939 44.1067L67.0389 28.0614C67.27 26.6042 68.5264 25.5314 70.0019 25.5314H70.8176C72.3431 25.5314 73.5733 24.2823 73.55 22.757V22.757C73.5392 22.0421 73.2486 21.36 72.7406 20.8569L56.5025 4.77433C55.3586 3.64139 53.4126 4.27863 53.1604 5.86873V5.86873C53.0081 6.82855 52.1806 7.53519 51.2088 7.53519H34.6611C32.8168 7.53519 31.4093 5.88675 31.6982 4.06522L31.7921 3.47294C32.0812 1.6504 30.672 0.00141108 28.8266 0.00296934L22.4683 0.00833853C21.6617 0.00901964 20.8894 0.334465 20.3256 0.911248L0.795257 20.8903C0.286275 21.411 0.00623731 22.1134 0.0173269 22.8414V22.8414C0.0400564 24.3336 1.2562 25.5314 2.74858 25.5314H7.38137C9.22566 25.5314 10.6332 27.1798 10.3443 29.0013L7.7993 45.0467C7.56817 46.5039 6.31176 47.5767 4.83634 47.5767H3.44014C1.76541 47.5767 0.414983 48.9479 0.440489 50.6224L0.448291 51.1346C0.460244 51.9193 0.779236 52.6681 1.33685 53.2204L17.3546 69.0848C18.8097 70.5259 21.2851 69.7153 21.6059 67.6927V67.6927C21.7996 66.4718 22.8523 65.5729 24.0884 65.5729H40.1771C42.0214 65.5729 43.429 67.2213 43.14 69.0429L42.9046 70.5271ZM43.9832 47.5767C45.4587 47.5767 46.7151 46.5039 46.9462 45.0467L49.4912 29.0013C49.7801 27.1798 48.3726 25.5314 46.5283 25.5314H30.855C29.3796 25.5314 28.1232 26.6042 27.892 28.0614L25.347 44.1067C25.0581 45.9283 26.4657 47.5767 28.31 47.5767H43.9832Z" fill="#008724"/>
</svg>
